<svg width="32" height="28" viewBox="0 0 32 28" fill="none" xmlns="http://www.w3.org/2000/svg">
<path fill-rule="evenodd" clip-rule="evenodd" d="M7.10433 26.7511L6.96065 22.4408C6.95646 22.3151 6.88282 22.2032 6.77085 22.146C4.59227 21.0315 0.571777 17.5701 0.571777 11.8233C0.571777 4.43358 6.95383 0.234863 14.3436 0.234863C21.5682 0.234863 27.9902 5.05072 28.2736 12.0144C28.2831 12.2473 28.051 12.4132 27.8274 12.3473C27.0452 12.1167 25.7255 11.8233 24.4205 11.8233C22.4051 11.8233 15.8551 12.4951 15.8551 19.2131C15.8551 21.1794 16.3989 22.553 16.918 23.3566C17.0903 23.6233 16.8945 24.0836 16.577 24.0836H13.5831C13.531 24.0836 13.4795 24.0957 13.4329 24.119L7.59026 27.0404C7.37127 27.1499 7.11248 26.9958 7.10433 26.7511ZM31.4743 19.549C31.4743 21.8172 30.0518 23.7937 27.9474 24.8282V26.5194C27.9474 26.7792 27.6651 26.9406 27.4412 26.8089L25.3204 25.5614C25.0799 25.5837 24.8357 25.5951 24.5884 25.5951C20.7855 25.5951 17.7025 22.8882 17.7025 19.549C17.7025 16.2098 20.7855 13.5028 24.5884 13.5028C28.3914 13.5028 31.4743 16.2098 31.4743 19.549Z" fill="#7D848F"/>
</svg>
