<svg width="20" height="27" viewBox="0 0 20 27" fill="none" xmlns="http://www.w3.org/2000/svg">
<path fill-rule="evenodd" clip-rule="evenodd" d="M10.2075 26.4349C10.211 26.4349 10.2145 26.4349 10.218 26.4349C10.22 26.4349 10.222 26.4349 10.2241 26.4349C14.5859 26.4328 19.9382 25.9231 19.9382 22.0682C19.9382 19.1978 16.7502 16.4916 14.8161 15.2686C14.6161 15.1422 14.5955 14.8534 14.7672 14.6905C16.3902 13.1501 17.0984 10.4798 17.0984 7.17236C16.9527 3.40844 13.928 0.402832 10.218 0.402832C6.52515 0.402832 3.51128 3.38062 3.33976 7.12003C3.33976 10.4798 4.26597 13.3789 5.64789 14.6905C5.81954 14.8534 5.79901 15.1422 5.59899 15.2686C3.66487 16.4916 0.476929 19.1978 0.476929 22.0682C0.476929 25.9231 5.82921 26.4328 10.191 26.4349C10.193 26.4349 10.1951 26.4349 10.1971 26.4349C10.2006 26.4349 10.2041 26.4349 10.2075 26.4349Z" fill="#7D848F"/>
</svg>
