<svg width="29" height="25" viewBox="0 0 29 25" fill="none" xmlns="http://www.w3.org/2000/svg">
<path fill-rule="evenodd" clip-rule="evenodd" d="M13.8357 0.411133C13.2792 0.411133 12.828 0.862291 12.828 1.41882V8.53165C14.2982 7.64137 16.0226 7.12891 17.8668 7.12891C19.7107 7.12891 21.4349 7.64125 22.905 8.53134V1.41883C22.905 0.862292 22.4538 0.411133 21.8973 0.411133H13.8357ZM1.07162 13.175H8.85094C8.38348 14.3144 8.12573 15.5621 8.12573 16.8699C8.12573 19.0454 8.83887 21.0543 10.0441 22.6756C9.88249 23.0163 9.53534 23.2519 9.13316 23.2519H1.07162C0.515088 23.2519 0.0639295 22.8008 0.0639295 22.2442V14.1827C0.0639295 13.6262 0.515089 13.175 1.07162 13.175ZM0.0638428 1.41896C0.0638428 0.862431 0.515002 0.411272 1.07154 0.411272H9.13307C9.68961 0.411272 10.1408 0.862432 10.1408 1.41896V9.4805C10.1408 10.037 9.68961 10.4882 9.13307 10.4882H1.07153C0.515001 10.4882 0.0638428 10.037 0.0638428 9.4805V1.41896ZM24.9206 16.5341C24.9206 17.3253 24.7903 18.086 24.5501 18.796L27.5327 21.2987C28.2433 21.8949 28.336 22.9543 27.7398 23.6648C27.1435 24.3754 26.0842 24.4681 25.3736 23.8718L22.7244 21.6488C21.4595 22.8506 19.7492 23.588 17.8667 23.588C13.971 23.588 10.8129 20.4299 10.8129 16.5341C10.8129 12.6384 13.971 9.48029 17.8667 9.48029C21.7625 9.48029 24.9206 12.6384 24.9206 16.5341ZM13.9871 16.5341C13.9871 18.6768 15.7241 20.4137 17.8667 20.4137C20.0094 20.4137 21.7463 18.6768 21.7463 16.5341C21.7463 14.3915 20.0094 12.6545 17.8667 12.6545C15.7241 12.6545 13.9871 14.3915 13.9871 16.5341Z" fill="#7D8490"/>
</svg>
